<svg xmlns="http://www.w3.org/2000/svg" version="1.1" xmlns:xlink="http://www.w3.org/1999/xlink" width="512" height="512" x="0" y="0" viewBox="0 0 64 64" style="enable-background:new 0 0 512 512" xml:space="preserve" class=""><g><path d="M22.4 30.9c-.6.3-1.4-.1-1.4-.8-.1-2.4-1.9-4.3-4.4-4.7-2.9-.5-6.6 2.5-5.4 6.3 1.2 3.9.5 8.2-1.6 11.8L3.4 54.1 9 60.5l7.5-13c2.1-3.6 5.6-5.9 9.4-7.3 4.5-1.7 4.5-6.3 2.1-8.5-1.5-1.4-3.7-1.7-5.6-.8zM12.2 51l-3 5.2c-.5.7-1.2.5-1.4.4-.5-.3-.6-.9-.4-1.4l3-5.2c.3-.5.9-.7 1.4-.4s.6.9.4 1.4zm5.7-21.8c-.3.5-.9.6-1.4.4-.5-.4-1.2.1-1.4.4s-.7.7-1.4.4c-.5-.3-.6-.9-.4-1.4.4-.7 1.7-2.3 4.1-1.1.6.2.7.8.5 1.3zM40.3 25.9c1.2-3.8 3.7-7.3 7.3-9.4l13-7.5L54 3.5l-10.4 6c-3.6 2.1-7.9 2.5-11.8 1.6-3.7-.9-6.9 2.3-6.2 5.8.4 2.3 2.4 3.9 4.7 4 .7 0 1.1.8.8 1.4-1 2-.7 4.5 1.1 6 2.4 2.2 6.8 1.7 8.1-2.4zM30 15.1c-.7.4-.5 1.1-.4 1.4.3.5.1 1.1-.4 1.4-.2.1-1 .4-1.4-.4-.3-.7-1-2.8 1.1-4.1.5-.3 1.1-.1 1.4.4.3.4.1 1-.3 1.3zM13.8 15.6c.5.4 1.2.2 1.4 0 .4-.4.4-1 0-1.4L10.9 10c-.4-.4-1-.4-1.4 0s-.4 1 0 1.4zM20.1 13.1c.6 0 1-.4 1-1V6.5c0-.6-.4-1-1-1s-1 .4-1 1v5.7c0 .5.5.9 1 .9zM6 21.6h5.7c.6 0 1-.4 1-1s-.4-1-1-1H6c-.6 0-1 .4-1 1s.4 1 1 1zM39.2 38.3c-.4-.4-1-.4-1.4 0s-.4 1 0 1.4l4.2 4.2c.2.2.9.5 1.4 0 .4-.4.4-1 0-1.4zM32.9 40.8c-.6 0-1 .4-1 1v5.7c0 .6.4 1 1 1s1-.4 1-1v-5.7c0-.5-.5-1-1-1zM47 32.3h-5.7c-.6 0-1 .4-1 1s.4 1 1 1H47c.6 0 1-.4 1-1s-.5-1-1-1z" fill="#ffffff" opacity="1" data-original="#000000"></path></g></svg>